<?xml version="1.0" encoding="UTF-8" standalone="no"?><!DOCTYPE svg PUBLIC "-//W3C//DTD SVG 1.1//EN" "http://www.w3.org/Graphics/SVG/1.1/DTD/svg11.dtd"><svg width="100%" height="100%" viewBox="0 0 105 105" version="1.1" xmlns="http://www.w3.org/2000/svg" xmlns:xlink="http://www.w3.org/1999/xlink" xml:space="preserve" xmlns:serif="http://www.serif.com/" style="fill-rule:evenodd;clip-rule:evenodd;stroke-linecap:round;stroke-linejoin:round;stroke-miterlimit:1.5;"><g><path d="M52.118,3.095l42.455,24.511l0,49.023l-42.455,24.512l-42.455,-24.512l0,-49.023l42.455,-24.511Z" style="fill:none;stroke:#fff;stroke-width:2px;"/><path d="M52.118,9.663l36.767,21.227l0,42.455l-36.767,21.228l-36.767,-21.228l0,-42.455l36.767,-21.227Z" style="fill:none;stroke:#fff;stroke-width:2px;"/><g><path d="M83.197,34.174l-62.159,35.887" style="fill:none;stroke:#fff;stroke-width:2px;"/><path d="M36.57,25.207l-3.138,1.812" style="fill:none;stroke:#fff;stroke-width:2px;"/><path d="M28.799,29.694l-7.761,4.48" style="fill:none;stroke:#fff;stroke-width:2px;"/><path d="M83.197,43.146l-14.325,8.27" style="fill:none;stroke:#fff;stroke-width:2px;"/><path d="M64.133,54.153l-8.057,4.651" style="fill:none;stroke:#fff;stroke-width:2px;"/><path d="M40.447,31.94l-7.746,4.472" style="fill:none;stroke:#fff;stroke-width:2px;"/><path d="M27.962,39.149l-6.924,3.997" style="fill:none;stroke:#fff;stroke-width:2px;"/><path d="M83.197,52.118l-1.68,0.97" style="fill:none;stroke:#fff;stroke-width:2px;"/><path d="M76.764,55.824l-10.225,5.854" style="fill:none;stroke:#fff;stroke-width:2px;"/><path d="M61.899,64.414l-1.987,1.147" style="fill:none;stroke:#fff;stroke-width:2px;"/><path d="M44.364,38.651l-2.573,1.486" style="fill:none;stroke:#fff;stroke-width:2px;"/><path d="M37.051,42.873l-8.694,5.019" style="fill:none;stroke:#fff;stroke-width:2px;"/><path d="M24.213,50.285l-3.175,1.833" style="fill:none;stroke:#fff;stroke-width:2px;"/><path d="M83.197,61.09l-9.052,5.226" style="fill:none;stroke:#fff;stroke-width:2px;"/><path d="M69.423,69.042l-5.594,3.23" style="fill:none;stroke:#fff;stroke-width:2px;"/><path d="M48.241,45.384l-9.964,5.753" style="fill:none;stroke:#fff;stroke-width:2px;"/><path d="M33.538,53.873l-5.218,3.013" style="fill:none;stroke:#fff;stroke-width:2px;"/><path d="M23.618,59.601l-2.58,1.489" style="fill:none;stroke:#fff;stroke-width:2px;"/><path d="M83.197,70.061l-1.615,0.933" style="fill:none;stroke:#fff;stroke-width:2px;"/><path d="M77.212,73.517c-1.015,0.591 0.537,-0.267 -3.365,1.943" style="fill:none;stroke:#fff;stroke-width:2px;"/><path d="M69.107,78.196l-1.401,0.809" style="fill:none;stroke:#fff;stroke-width:2px;"/></g></g></svg>
