<?xml version="1.0" encoding="UTF-8" standalone="no"?><!DOCTYPE svg PUBLIC "-//W3C//DTD SVG 1.1//EN" "http://www.w3.org/Graphics/SVG/1.1/DTD/svg11.dtd"><svg width="100%" height="100%" viewBox="0 0 596 596" version="1.1" xmlns="http://www.w3.org/2000/svg" xmlns:xlink="http://www.w3.org/1999/xlink" xml:space="preserve" xmlns:serif="http://www.serif.com/" style="fill-rule:evenodd;clip-rule:evenodd;stroke-linecap:round;stroke-linejoin:round;stroke-miterlimit:1.5;"><path d="M297.638,9.317l249.693,144.16l0,288.321l-249.693,144.16l-249.693,-144.16l0,-288.321l249.693,-144.16Z" style="fill:none;stroke:#ed5152;stroke-width:7px;"/><path d="M297.638,47.945l216.24,124.846l0,249.693l-216.24,124.847l-216.241,-124.847l0,-249.693l216.241,-124.846Z" style="fill:none;stroke:#ed5152;stroke-width:7px;"/><g><path d="M480.426,192.105l-365.576,211.065" style="fill:none;stroke:#ed5152;stroke-width:7px;"/><path d="M206.198,139.365l-18.456,10.656" style="fill:none;stroke:#ed5152;stroke-width:7px;"/><path d="M160.49,165.755l-45.64,26.35" style="fill:none;stroke:#ed5152;stroke-width:7px;"/><path d="M480.426,244.871l-84.248,48.641" style="fill:none;stroke:#ed5152;stroke-width:7px;"/><path d="M368.303,309.605l-47.385,27.358" style="fill:none;stroke:#ed5152;stroke-width:7px;"/><path d="M228.998,178.968l-45.554,26.301" style="fill:none;stroke:#ed5152;stroke-width:7px;"/><path d="M155.57,221.362l-40.72,23.509" style="fill:none;stroke:#ed5152;stroke-width:7px;"/><path d="M480.426,297.638l-9.879,5.704" style="fill:none;stroke:#ed5152;stroke-width:7px;"/><path d="M442.592,319.435l-60.141,34.429" style="fill:none;stroke:#ed5152;stroke-width:7px;"/><path d="M355.166,369.957l-11.688,6.748" style="fill:none;stroke:#ed5152;stroke-width:7px;"/><path d="M252.038,218.432l-15.138,8.74" style="fill:none;stroke:#ed5152;stroke-width:7px;"/><path d="M209.026,243.265l-51.133,29.522" style="fill:none;stroke:#ed5152;stroke-width:7px;"/><path d="M133.519,286.859l-18.669,10.779" style="fill:none;stroke:#ed5152;stroke-width:7px;"/><path d="M480.426,350.404l-53.241,30.739" style="fill:none;stroke:#ed5152;stroke-width:7px;"/><path d="M399.417,397.174l-32.899,18.995" style="fill:none;stroke:#ed5152;stroke-width:7px;"/><path d="M274.838,258.035l-58.6,33.833" style="fill:none;stroke:#ed5152;stroke-width:7px;"/><path d="M188.364,307.961l-30.692,17.72" style="fill:none;stroke:#ed5152;stroke-width:7px;"/><path d="M130.019,341.646l-15.169,8.758" style="fill:none;stroke:#ed5152;stroke-width:7px;"/><path d="M480.426,403.17l-9.502,5.486" style="fill:none;stroke:#ed5152;stroke-width:7px;"/><path d="M445.226,423.493c-5.972,3.477 3.159,-1.57 -19.794,11.428" style="fill:none;stroke:#ed5152;stroke-width:7px;"/><path d="M397.558,451.014l-8.24,4.758" style="fill:none;stroke:#ed5152;stroke-width:7px;"/></g></svg>
