<svg id="b244499b-4d19-4b6c-bef6-902fc5aaf1f0" data-name="Layer 1" xmlns="http://www.w3.org/2000/svg" xmlns:xlink="http://www.w3.org/1999/xlink" width="1197.6" height="853.87" viewBox="0 0 1197.6 853.87"><defs><linearGradient id="ac4d6637-e3bc-43e8-ac9c-a06741e04cfe" x1="331.45" y1="247.79" x2="331.45" y2="152.96" gradientUnits="userSpaceOnUse"><stop offset="0" stop-color="gray" stop-opacity="0.25"/><stop offset="0.54" stop-color="gray" stop-opacity="0.12"/><stop offset="1" stop-color="gray" stop-opacity="0.1"/></linearGradient><linearGradient id="bf1b9053-3659-4ace-9c95-4f70f9fb240e" x1="909" y1="362.49" x2="909" y2="247.4" xlink:href="#ac4d6637-e3bc-43e8-ac9c-a06741e04cfe"/><linearGradient id="f14e03a3-d1c6-4a7d-a922-c49f9ce3273e" x1="909" y1="263.84" x2="909" y2="193.96" xlink:href="#ac4d6637-e3bc-43e8-ac9c-a06741e04cfe"/><linearGradient id="ade09c44-8087-48cc-be2c-562db2c163a7" x1="227" y1="362.49" x2="227" y2="247.4" xlink:href="#ac4d6637-e3bc-43e8-ac9c-a06741e04cfe"/><linearGradient id="a2d39016-861c-4fc4-8036-2e4f36b0db5f" x1="227" y1="263.84" x2="227" y2="193.96" xlink:href="#ac4d6637-e3bc-43e8-ac9c-a06741e04cfe"/><linearGradient id="ec0a66c7-66f7-4408-b635-5ca8159e2110" x1="568.5" y1="472.96" x2="568.5" y2="444.96" xlink:href="#ac4d6637-e3bc-43e8-ac9c-a06741e04cfe"/><linearGradient id="b683b6d0-87da-4290-b20e-9b4904801a7f" x1="732.11" y1="433.3" x2="732.11" y2="428.93" xlink:href="#ac4d6637-e3bc-43e8-ac9c-a06741e04cfe"/><linearGradient id="b84eab91-886b-49f5-b8a3-e4caa56ad040" x1="732.16" y1="437.84" x2="732.16" y2="433.48" xlink:href="#ac4d6637-e3bc-43e8-ac9c-a06741e04cfe"/><linearGradient id="a9fdf0e6-3114-4532-a437-2ec1b098d0a8" x1="732.21" y1="442.39" x2="732.21" y2="438.02" xlink:href="#ac4d6637-e3bc-43e8-ac9c-a06741e04cfe"/><linearGradient id="a7d430a0-5377-430f-ba28-4aa2546a9b3f" x1="716.77" y1="454.5" x2="716.77" y2="445.29" xlink:href="#ac4d6637-e3bc-43e8-ac9c-a06741e04cfe"/><linearGradient id="bab0c93a-1225-4791-a952-604c04ebcb3f" x1="747.35" y1="454.59" x2="747.35" y2="445.38" xlink:href="#ac4d6637-e3bc-43e8-ac9c-a06741e04cfe"/><linearGradient id="b55adb9c-1db9-44eb-a528-5c22b472379b" x1="444.11" y1="433.3" x2="444.11" y2="428.93" xlink:href="#ac4d6637-e3bc-43e8-ac9c-a06741e04cfe"/><linearGradient id="b8bd46f1-ad1e-4faf-8fcb-7036fb18b944" x1="444.16" y1="437.84" x2="444.16" y2="433.48" xlink:href="#ac4d6637-e3bc-43e8-ac9c-a06741e04cfe"/><linearGradient id="a6fda98a-58ad-4531-89aa-8820367b61a2" x1="444.21" y1="442.39" x2="444.21" y2="438.02" xlink:href="#ac4d6637-e3bc-43e8-ac9c-a06741e04cfe"/><linearGradient id="af125aab-8136-45b3-a262-f09a14f7267f" x1="428.77" y1="454.5" x2="428.77" y2="445.29" xlink:href="#ac4d6637-e3bc-43e8-ac9c-a06741e04cfe"/><linearGradient id="ae676d7f-414b-442d-88a8-81928979bae7" x1="459.35" y1="454.59" x2="459.35" y2="445.38" xlink:href="#ac4d6637-e3bc-43e8-ac9c-a06741e04cfe"/><linearGradient id="bcbf11fa-377b-405c-9fa6-773fd2d63845" x1="300.11" y1="433.3" x2="300.11" y2="428.93" xlink:href="#ac4d6637-e3bc-43e8-ac9c-a06741e04cfe"/><linearGradient id="ec387c91-3108-4065-8ab8-65bb08473192" x1="300.16" y1="437.84" x2="300.16" y2="433.48" xlink:href="#ac4d6637-e3bc-43e8-ac9c-a06741e04cfe"/><linearGradient id="b68136b9-9ed7-405b-b851-1f1e2b29a35a" x1="300.21" y1="442.39" x2="300.21" y2="438.02" xlink:href="#ac4d6637-e3bc-43e8-ac9c-a06741e04cfe"/><linearGradient id="e6aee77b-7486-48bc-ba91-8e0db946158e" x1="284.77" y1="454.5" x2="284.77" y2="445.29" xlink:href="#ac4d6637-e3bc-43e8-ac9c-a06741e04cfe"/><linearGradient id="a8df4f9d-d9b1-458a-a967-de8fa22fd79f" x1="315.35" y1="454.59" x2="315.35" y2="445.38" xlink:href="#ac4d6637-e3bc-43e8-ac9c-a06741e04cfe"/></defs><title>Golden gate bridge</title><path d="M673.57,163.85C599.46,161,528.88,134.6,461.48,105.72S327.32,44.82,255,29.52c-46.52-9.85-99.73-11.24-137.21,16.29C81.69,72.3,70,118,63.77,160.46c-4.71,31.92-7.49,65.52,5.43,95.41,9,20.75,24.9,38.19,35.91,58.06,38.32,69.15,11.24,154.43-30.29,222-19.48,31.68-42.08,61.89-57.11,95.61s-22,72.35-8.83,106.75c13,34.09,44.1,59.7,77.75,77.71,68.35,36.58,148.89,47,227.42,53,173.85,13.12,348.63,7.44,523,1.75,64.5-2.11,129.3-4.24,192.76-15.25,35.24-6.12,71.62-15.82,97.21-39.24,32.48-29.74,40.53-80.09,18.76-117.38-36.5-62.54-137.44-78.07-163-145.19-14-37,.38-78.1,20.79-112.37,43.78-73.5,117.17-138,121-222,2.65-57.71-32.63-115.5-87.18-142.8C980.25,47.83,901,51.43,858.78,98.81,815.34,147.59,739,166.35,673.57,163.85Z" transform="translate(-1.93 -23.07)" fill="#3e3452" opacity="0.1"/><path d="M412.43,585.4s22-7.58,38,0,42,2.52,50-1.52,44,1.52,48,5.56,20,9.09,31,5,33-13.13,42-7.58" transform="translate(-1.93 -23.07)" fill="#2196f3"/><path d="M412.43,585.4s22-7.58,38,0,42,2.52,50-1.52,44,1.52,48,5.56,20,9.09,31,5,33-13.13,42-7.58" transform="translate(-1.93 -23.07)" opacity="0.2"/><path d="M333.43,526s50.42-15,87.09,0,96.25,5,114.59-3,100.84,3,110,11,45.84,18,71,10,75.63-26,96.26-15" transform="translate(-1.93 -23.07)" fill="#2196f3"/><path d="M333.43,526s50.42-15,87.09,0,96.25,5,114.59-3,100.84,3,110,11,45.84,18,71,10,75.63-26,96.26-15" transform="translate(-1.93 -23.07)" opacity="0.2"/><ellipse cx="331.45" cy="200.38" rx="48.05" ry="47.41" fill="url(#ac4d6637-e3bc-43e8-ac9c-a06741e04cfe)"/><circle cx="331.45" cy="200.38" r="41.88" fill="#ff9800"/><rect x="899.04" y="247.4" width="19.92" height="115.09" fill="url(#bf1b9053-3659-4ace-9c95-4f70f9fb240e)"/><rect x="904.73" y="193.96" width="8.54" height="69.88" fill="url(#f14e03a3-d1c6-4a7d-a922-c49f9ce3273e)"/><rect x="217.04" y="247.4" width="19.92" height="115.09" fill="url(#ade09c44-8087-48cc-be2c-562db2c163a7)"/><rect x="222.73" y="193.96" width="8.54" height="69.88" fill="url(#a2d39016-861c-4fc4-8036-2e4f36b0db5f)"/><rect x="125.5" y="444.96" width="886" height="28" fill="url(#ec0a66c7-66f7-4408-b635-5ca8159e2110)"/><rect x="128.5" y="448.96" width="879" height="17" fill="#3e3452"/><rect x="128.5" y="465.96" width="879" height="3" fill="#3e3452"/><rect x="132" y="468.93" width="879" height="3" opacity="0.2"/><rect x="214" y="351.46" width="26" height="116" fill="#3e3452"/><rect x="220" y="250.46" width="14" height="112" fill="#3e3452"/><rect x="224" y="198.46" width="6" height="68" fill="#3e3452"/><rect x="897.93" y="374.53" width="26" height="116" transform="translate(1819.93 841.99) rotate(-180)" fill="#3e3452"/><rect x="902" y="250.46" width="14" height="112" fill="#3e3452"/><rect x="906" y="198.46" width="6" height="68" fill="#3e3452"/><rect x="557" y="391.93" width="6" height="68" fill="#3e3452"/><path d="M1018.43,316s-61-4-107.5-86.5c-351,476-682,0-682,0C182.43,312,121.43,316,121.43,316" transform="translate(-1.93 -23.07)" fill="none" stroke="#3e3452" stroke-miterlimit="10" stroke-width="2"/><line x1="140.39" y1="287.67" x2="140.39" y2="448.96" fill="none" stroke="#3e3452" stroke-miterlimit="10"/><line x1="171.82" y1="270.61" x2="171.82" y2="448.96" fill="none" stroke="#3e3452" stroke-miterlimit="10"/><line x1="532.53" y1="414.75" x2="532.53" y2="448.96" fill="none" stroke="#3e3452" stroke-miterlimit="10"/><line x1="604.5" y1="418.02" x2="604.5" y2="448.96" fill="none" stroke="#3e3452" stroke-miterlimit="10"/><line x1="459.85" y1="395.07" x2="459.85" y2="448.96" fill="none" stroke="#3e3452" stroke-miterlimit="10"/><line x1="390.35" y1="359.79" x2="390.35" y2="448.96" fill="none" stroke="#3e3452" stroke-miterlimit="10"/><line x1="319.14" y1="306.46" x2="319.14" y2="448.96" fill="none" stroke="#3e3452" stroke-miterlimit="10"/><line x1="677.24" y1="399.96" x2="677.24" y2="448.96" fill="none" stroke="#3e3452" stroke-miterlimit="10"/><line x1="751.55" y1="362.46" x2="751.55" y2="448.46" fill="none" stroke="#3e3452" stroke-miterlimit="10"/><line x1="821.83" y1="306.46" x2="821.83" y2="448.96" fill="none" stroke="#3e3452" stroke-miterlimit="10"/><line x1="281.48" y1="270.61" x2="281.48" y2="448.96" fill="none" stroke="#3e3452" stroke-miterlimit="10"/><line x1="856.8" y1="270.61" x2="856.8" y2="448.96" fill="none" stroke="#3e3452" stroke-miterlimit="10"/><line x1="995.61" y1="287.67" x2="995.61" y2="448.96" fill="none" stroke="#3e3452" stroke-miterlimit="10"/><line x1="964.18" y1="270.61" x2="964.18" y2="448.96" fill="none" stroke="#3e3452" stroke-miterlimit="10"/><line x1="355.35" y1="335.82" x2="355.35" y2="448.46" fill="none" stroke="#3e3452" stroke-miterlimit="10"/><line x1="426.83" y1="380.31" x2="426.83" y2="448.96" fill="none" stroke="#3e3452" stroke-miterlimit="10"/><line x1="490.3" y1="405.46" x2="490.3" y2="448.46" fill="none" stroke="#3e3452" stroke-miterlimit="10"/><line x1="643.53" y1="410.07" x2="643.53" y2="448.96" fill="none" stroke="#3e3452" stroke-miterlimit="10"/><line x1="713.25" y1="384.46" x2="713.25" y2="448.96" fill="none" stroke="#3e3452" stroke-miterlimit="10"/><line x1="783.45" y1="339.63" x2="783.45" y2="448.46" fill="none" stroke="#3e3452" stroke-miterlimit="10"/><rect x="220.5" y="349.96" width="13" height="2" opacity="0.2"/><rect x="224.5" y="248.96" width="5" height="2" opacity="0.2"/><rect x="902.5" y="348.96" width="13" height="2" opacity="0.2"/><rect x="906.5" y="248.96" width="5" height="2" opacity="0.2"/><path d="M332.43,622.4s9.05-7.58,15.63,0,17.28,2.52,20.58-1.52,18.1,1.52,19.75,5.56,8.23,9.09,12.75,5,13.58-13.13,17.29-7.58" transform="translate(-1.93 -23.07)" fill="#2196f3"/><path d="M332.43,622.4s9.05-7.58,15.63,0,17.28,2.52,20.58-1.52,18.1,1.52,19.75,5.56,8.23,9.09,12.75,5,13.58-13.13,17.29-7.58" transform="translate(-1.93 -23.07)" opacity="0.2"/><path d="M172.43,549.4s9-7.58,15.63,0,17.28,2.52,20.58-1.52,18.1,1.52,19.75,5.56,8.23,9.09,12.75,5,13.58-13.13,17.29-7.58" transform="translate(-1.93 -23.07)" fill="#2196f3"/><path d="M172.43,549.4s9-7.58,15.63,0,17.28,2.52,20.58-1.52,18.1,1.52,19.75,5.56,8.23,9.09,12.75,5,13.58-13.13,17.29-7.58" transform="translate(-1.93 -23.07)" opacity="0.2"/><path d="M78.43,636.4s9-7.58,15.63,0,17.28,2.52,20.58-1.52,18.1,1.52,19.75,5.56,8.23,9.09,12.75,5,13.58-13.13,17.29-7.58" transform="translate(-1.93 -23.07)" fill="#2196f3"/><path d="M78.43,636.4s9-7.58,15.63,0,17.28,2.52,20.58-1.52,18.1,1.52,19.75,5.56,8.23,9.09,12.75,5,13.58-13.13,17.29-7.58" transform="translate(-1.93 -23.07)" opacity="0.2"/><path d="M804.43,562.4s9.05-7.58,15.63,0,17.28,2.52,20.58-1.52,18.1,1.52,19.75,5.56,8.23,9.09,12.75,5,13.58-13.13,17.29-7.58" transform="translate(-1.93 -23.07)" fill="#2196f3"/><path d="M804.43,562.4s9.05-7.58,15.63,0,17.28,2.52,20.58-1.52,18.1,1.52,19.75,5.56,8.23,9.09,12.75,5,13.58-13.13,17.29-7.58" transform="translate(-1.93 -23.07)" opacity="0.2"/><path d="M949.43,691.4s9.05-7.58,15.63,0,17.28,2.52,20.58-1.52,18.1,1.52,19.75,5.56,8.23,9.09,12.75,5,13.58-13.13,17.29-7.58" transform="translate(-1.93 -23.07)" fill="#2196f3"/><path d="M949.43,691.4s9.05-7.58,15.63,0,17.28,2.52,20.58-1.52,18.1,1.52,19.75,5.56,8.23,9.09,12.75,5,13.58-13.13,17.29-7.58" transform="translate(-1.93 -23.07)" opacity="0.2"/><path d="M227.43,698.4s31.26-7.58,54,0,59.68,2.52,71.05-1.52,62.52,1.52,68.21,5.56,28.42,9.09,44.05,5,46.9-13.13,59.69-7.58" transform="translate(-1.93 -23.07)" fill="#2196f3"/><path d="M134.43,771.64s31.26-8.12,54,0,59.68,2.7,71.05-1.63,62.52,1.63,68.21,6,28.42,9.74,44.05,5.41,46.9-14.07,59.69-8.12" transform="translate(-1.93 -23.07)" fill="#2196f3"/><path d="M472.43,785.4s13.15-7.58,22.72,0,25.12,2.52,29.91-1.52,26.31,1.52,28.7,5.56,12,9.09,18.55,5,19.73-13.13,25.12-7.58" transform="translate(-1.93 -23.07)" fill="#2196f3"/><path d="M834.43,750.4s13.15-7.58,22.72,0,25.12,2.52,29.91-1.52,26.31,1.52,28.7,5.56,12,9.09,18.55,5,19.73-13.13,25.12-7.58" transform="translate(-1.93 -23.07)" fill="#2196f3"/><path d="M597.43,691.4s13.15-7.58,22.72,0,25.12,2.52,29.91-1.52,26.31,1.52,28.7,5.56,12,9.09,18.55,5,19.73-13.13,25.12-7.58" transform="translate(-1.93 -23.07)" fill="#2196f3"/><path d="M652.43,797.4s13.15-7.58,22.72,0,25.12,2.52,29.91-1.52,26.31,1.52,28.7,5.56,12,9.09,18.55,5,19.73-13.13,25.12-7.58" transform="translate(-1.93 -23.07)" fill="#2196f3"/><path d="M755.43,643.4s16.63-7.58,28.72,0,31.75,2.52,37.8-1.52,33.26,1.52,36.29,5.56,15.12,9.09,23.43,5,25-13.13,31.76-7.58" transform="translate(-1.93 -23.07)" fill="#2196f3"/><path d="M755.43,643.4s16.63-7.58,28.72,0,31.75,2.52,37.8-1.52,33.26,1.52,36.29,5.56,15.12,9.09,23.43,5,25-13.13,31.76-7.58" transform="translate(-1.93 -23.07)" opacity="0.2"/><path d="M1198.07,681.38a1.5,1.5,0,0,0,0-3,1.5,1.5,0,0,0,0,3Z" transform="translate(-1.93 -23.07)" fill="#3e3452"/><rect x="716.22" y="430.32" width="2.3" height="14.39" rx="1.15" fill="#3e3452"/><rect x="745.64" y="430.32" width="2.3" height="13.82" rx="1.15" fill="#3e3452"/><rect x="712.42" y="428.93" width="39.39" height="4.37" rx="2.18" fill="url(#b683b6d0-87da-4290-b20e-9b4904801a7f)"/><rect x="712.47" y="433.48" width="39.39" height="4.37" rx="2.18" fill="url(#b84eab91-886b-49f5-b8a3-e4caa56ad040)"/><rect x="712.52" y="438.02" width="39.39" height="4.37" rx="2.18" fill="url(#a9fdf0e6-3114-4532-a437-2ec1b098d0a8)"/><rect x="712.82" y="429.17" width="38.58" height="3.45" rx="1.73" fill="#ccc"/><rect x="712.82" y="433.78" width="38.58" height="3.45" rx="1.73" fill="#ccc"/><rect x="712.82" y="438.38" width="38.58" height="3.45" rx="1.73" fill="#ccc"/><rect x="712.82" y="442.41" width="38.58" height="3.45" rx="1.73" fill="#3e3452"/><circle cx="717.37" cy="430.9" r="0.58" fill="#3e3452"/><circle cx="717.37" cy="435.5" r="0.58" fill="#3e3452"/><circle cx="717.37" cy="440.11" r="0.58" fill="#3e3452"/><circle cx="746.79" cy="440.11" r="0.58" fill="#3e3452"/><circle cx="746.79" cy="435.5" r="0.58" fill="#3e3452"/><circle cx="746.79" cy="430.9" r="0.58" fill="#3e3452"/><rect x="715.9" y="445.29" width="1.75" height="9.21" rx="0.87" fill="url(#a7d430a0-5377-430f-ba28-4aa2546a9b3f)"/><rect x="746.48" y="445.38" width="1.75" height="9.21" rx="0.87" fill="url(#bab0c93a-1225-4791-a952-604c04ebcb3f)"/><rect x="716.22" y="445.29" width="1.15" height="9.21" rx="0.58" fill="#3e3452"/><rect x="746.79" y="445.29" width="1.15" height="9.21" rx="0.58" fill="#3e3452"/><rect x="428.22" y="430.32" width="2.3" height="14.39" rx="1.15" fill="#3e3452"/><rect x="457.64" y="430.32" width="2.3" height="13.82" rx="1.15" fill="#3e3452"/><rect x="424.42" y="428.93" width="39.39" height="4.37" rx="2.18" fill="url(#b55adb9c-1db9-44eb-a528-5c22b472379b)"/><rect x="424.47" y="433.48" width="39.39" height="4.37" rx="2.18" fill="url(#b8bd46f1-ad1e-4faf-8fcb-7036fb18b944)"/><rect x="424.52" y="438.02" width="39.39" height="4.37" rx="2.18" fill="url(#a6fda98a-58ad-4531-89aa-8820367b61a2)"/><rect x="424.82" y="429.17" width="38.58" height="3.45" rx="1.73" fill="#ccc"/><rect x="424.82" y="433.78" width="38.58" height="3.45" rx="1.73" fill="#ccc"/><rect x="424.82" y="438.38" width="38.58" height="3.45" rx="1.73" fill="#ccc"/><rect x="424.82" y="442.41" width="38.58" height="3.45" rx="1.73" fill="#3e3452"/><circle cx="429.37" cy="430.9" r="0.58" fill="#3e3452"/><circle cx="429.37" cy="435.5" r="0.58" fill="#3e3452"/><circle cx="429.37" cy="440.11" r="0.58" fill="#3e3452"/><circle cx="458.79" cy="440.11" r="0.58" fill="#3e3452"/><circle cx="458.79" cy="435.5" r="0.58" fill="#3e3452"/><circle cx="458.79" cy="430.9" r="0.58" fill="#3e3452"/><rect x="427.9" y="445.29" width="1.75" height="9.21" rx="0.87" fill="url(#af125aab-8136-45b3-a262-f09a14f7267f)"/><rect x="458.48" y="445.38" width="1.75" height="9.21" rx="0.87" fill="url(#ae676d7f-414b-442d-88a8-81928979bae7)"/><rect x="428.22" y="445.29" width="1.15" height="9.21" rx="0.58" fill="#3e3452"/><rect x="458.79" y="445.29" width="1.15" height="9.21" rx="0.58" fill="#3e3452"/><rect x="284.22" y="430.32" width="2.3" height="14.39" rx="1.15" fill="#3e3452"/><rect x="313.64" y="430.32" width="2.3" height="13.82" rx="1.15" fill="#3e3452"/><rect x="280.42" y="428.93" width="39.39" height="4.37" rx="2.18" fill="url(#bcbf11fa-377b-405c-9fa6-773fd2d63845)"/><rect x="280.47" y="433.48" width="39.39" height="4.37" rx="2.18" fill="url(#ec387c91-3108-4065-8ab8-65bb08473192)"/><rect x="280.52" y="438.02" width="39.39" height="4.37" rx="2.18" fill="url(#b68136b9-9ed7-405b-b851-1f1e2b29a35a)"/><rect x="280.82" y="429.17" width="38.58" height="3.45" rx="1.73" fill="#ccc"/><rect x="280.82" y="433.78" width="38.58" height="3.45" rx="1.73" fill="#ccc"/><rect x="280.82" y="438.38" width="38.58" height="3.45" rx="1.73" fill="#ccc"/><rect x="280.82" y="442.41" width="38.58" height="3.45" rx="1.73" fill="#3e3452"/><circle cx="285.37" cy="430.9" r="0.58" fill="#3e3452"/><circle cx="285.37" cy="435.5" r="0.58" fill="#3e3452"/><circle cx="285.37" cy="440.11" r="0.58" fill="#3e3452"/><circle cx="314.79" cy="440.11" r="0.58" fill="#3e3452"/><circle cx="314.79" cy="435.5" r="0.58" fill="#3e3452"/><circle cx="314.79" cy="430.9" r="0.58" fill="#3e3452"/><rect x="283.9" y="445.29" width="1.75" height="9.21" rx="0.87" fill="url(#e6aee77b-7486-48bc-ba91-8e0db946158e)"/><rect x="314.48" y="445.38" width="1.75" height="9.21" rx="0.87" fill="url(#a8df4f9d-d9b1-458a-a967-de8fa22fd79f)"/><rect x="284.22" y="445.29" width="1.15" height="9.21" rx="0.58" fill="#3e3452"/><rect x="314.79" y="445.29" width="1.15" height="9.21" rx="0.58" fill="#3e3452"/><path d="M562.43,209h-3.56a2.07,2.07,0,0,0,.06-.5,2.51,2.51,0,0,0-2.5-2.5h-78a2.5,2.5,0,0,0,0,5H482a2.07,2.07,0,0,0-.05.5,2.5,2.5,0,0,0,2.5,2.5h-13a2.5,2.5,0,0,0,0,5h78a2.5,2.5,0,0,0,0-5h13a2.5,2.5,0,0,0,0-5Z" transform="translate(-1.93 -23.07)" fill="#3e3452" opacity="0.1"/><path d="M959.43,169h-3.56a2.07,2.07,0,0,0,.06-.5,2.51,2.51,0,0,0-2.5-2.5h-78a2.5,2.5,0,1,0,0,5H879a2.07,2.07,0,0,0-.05.5,2.5,2.5,0,0,0,2.5,2.5h-13a2.5,2.5,0,1,0,0,5h78a2.5,2.5,0,0,0,0-5h13a2.5,2.5,0,0,0,0-5Z" transform="translate(-1.93 -23.07)" fill="#3e3452" opacity="0.1"/><path d="M779.43,290h-3.56a2.07,2.07,0,0,0,.06-.5,2.51,2.51,0,0,0-2.5-2.5h-78a2.5,2.5,0,0,0,0,5H699a2.07,2.07,0,0,0-.05.5,2.5,2.5,0,0,0,2.5,2.5h-13a2.5,2.5,0,0,0,0,5h78a2.5,2.5,0,0,0,0-5h13a2.5,2.5,0,0,0,0-5Z" transform="translate(-1.93 -23.07)" fill="#3e3452" opacity="0.1"/></svg>
